<?xml version="1.0" encoding="iso-8859-1"?>
<!-- Generator: Adobe Illustrator 16.0.0, SVG Export Plug-In . SVG Version: 6.00 Build 0)  -->
<!DOCTYPE svg PUBLIC "-//W3C//DTD SVG 1.1//EN" "http://www.w3.org/Graphics/SVG/1.1/DTD/svg11.dtd">
<svg version="1.1" id="Capa_1" xmlns="http://www.w3.org/2000/svg" xmlns:xlink="http://www.w3.org/1999/xlink" x="0px" y="0px"
	 width="611.992px" height="611.992px" viewBox="0 0 611.992 611.992" style="enable-background:new 0 0 611.992 611.992;"
	 xml:space="preserve">
<g>
	<path d="M601.466,246.132c-7.81-8.695-18.989-13.685-30.671-13.685c-10.188,0-19.953,3.751-27.475,10.545l-7.976,7.154
		c-12.169-57.655-43.182-110.181-88.288-149.068C397.974,58.759,335.3,35.456,270.578,35.456C121.379,35.456,0,156.805,0,305.958
		c0,149.195,121.379,270.578,270.578,270.578c69.498,0,135.526-26.289,185.914-74.021c10.8-10.204,20.741-21.267,29.55-32.881
		c13.726-18.093,10.207-43.977-7.849-57.703c-7.243-5.496-15.864-8.403-24.928-8.403c-12.986,0-24.946,5.935-32.812,16.285
		c-6.059,7.998-12.969,15.681-20.535,22.834c-35.09,33.223-81.025,51.518-129.343,51.518c-103.781,0-188.209-84.428-188.209-188.209
		c0-103.736,84.428-188.135,188.209-188.135c78.34,0,147.252,48.002,175.181,119.35c-5.849-3.072-12.395-4.708-19.121-4.708
		c-11.678,0-22.856,4.978-30.678,13.667c-7.364,8.204-11.09,18.787-10.485,29.793c0.604,10.98,5.447,21.057,13.625,28.368
		l72.067,64.651c7.555,6.812,17.339,10.567,27.546,10.567c10.129,0,19.89-3.736,27.505-10.534l72.112-64.688
		c8.178-7.345,13.006-17.44,13.603-28.417C612.533,264.877,608.815,254.317,601.466,246.132z M596.953,275.059
		c-0.379,6.978-3.451,13.396-8.643,18.063l-72.094,64.673c-4.847,4.325-11.06,6.711-17.496,6.711c-6.49,0-12.702-2.382-17.508-6.719
		l-72.098-64.677c-5.195-4.645-8.268-11.041-8.65-18.01c-0.387-7,1.984-13.73,6.662-18.937c4.971-5.526,12.087-8.692,19.519-8.692
		c6.464,0,12.661,2.378,17.47,6.704l11.386,10.208c2.457,2.194,6.051,2.54,8.876,0.844c2.82-1.7,4.209-5.042,3.413-8.238
		c-22.564-90.771-103.657-154.166-197.205-154.166c-112.053,0-203.215,91.128-203.215,203.139
		c0,112.054,91.162,203.215,203.215,203.215c52.17,0,101.767-19.754,139.656-55.621c8.163-7.721,15.628-16.022,22.178-24.665
		c4.997-6.576,12.601-10.35,20.857-10.35c5.762,0,11.243,1.849,15.85,5.346c11.472,8.718,13.7,25.175,4.971,36.684
		c-8.31,10.954-17.699,21.402-27.906,31.047c-47.598,45.087-109.96,69.918-175.602,69.918
		C129.654,561.531,15.005,446.882,15.005,305.958c0-140.882,114.649-255.497,255.572-255.497c61.128,0,120.321,22.013,166.68,61.98
		c45.876,39.554,76.321,94.027,85.73,153.393c0.431,2.716,2.311,4.978,4.898,5.897c2.589,0.919,5.474,0.349,7.521-1.486
		l17.954-16.101c4.775-4.314,10.969-6.692,17.433-6.692c7.428,0,14.54,3.173,19.507,8.703
		C594.969,261.359,597.332,268.07,596.953,275.059z"/>
</g>
<g>
</g>
<g>
</g>
<g>
</g>
<g>
</g>
<g>
</g>
<g>
</g>
<g>
</g>
<g>
</g>
<g>
</g>
<g>
</g>
<g>
</g>
<g>
</g>
<g>
</g>
<g>
</g>
<g>
</g>
</svg>
