<?xml version="1.0" standalone="no"?>
<!DOCTYPE svg PUBLIC "-//W3C//DTD SVG 20010904//EN"
 "http://www.w3.org/TR/2001/REC-SVG-20010904/DTD/svg10.dtd">
<svg version="1.0" xmlns="http://www.w3.org/2000/svg"
 width="1280.000000pt" height="1280.000000pt" viewBox="0 0 1280.000000 1280.000000"
 preserveAspectRatio="xMidYMid meet">
<metadata>
Created by potrace 1.15, written by Peter Selinger 2001-2017
</metadata>
<g transform="translate(0.000000,1280.000000) scale(0.100000,-0.100000)"
fill="#000000" stroke="none">
<path d="M6310 12562 l0 -239 -152 -7 c-819 -37 -1531 -210 -2301 -562 -769
-351 -1513 -923 -2067 -1589 -579 -696 -1004 -1532 -1219 -2400 -22 -88 -43
-178 -46 -200 -8 -50 -37 -98 580 973 264 457 482 832 485 832 3 0 295 -502
650 -1115 354 -613 646 -1113 648 -1111 1 2 14 46 28 97 228 862 791 1628
1556 2114 221 142 519 285 758 367 331 112 610 166 1008 192 l72 5 0 -146 c0
-132 2 -145 17 -139 32 13 2723 1570 2723 1577 0 3 -233 140 -517 305 -796
458 -2154 1244 -2190 1266 l-33 20 0 -240z"/>
<path d="M7730 12166 c0 -2 369 -216 820 -477 451 -260 820 -476 820 -479 0
-3 -522 -306 -1160 -674 -637 -368 -1157 -673 -1155 -676 3 -4 24 -10 47 -14
24 -4 104 -22 178 -41 1219 -306 2202 -1244 2570 -2450 72 -235 128 -534 145
-772 l7 -93 -187 0 c-174 0 -187 -1 -180 -17 3 -10 120 -214 259 -453 139
-239 490 -848 781 -1353 291 -504 533 -916 537 -915 4 2 363 617 796 1368
l789 1365 -197 3 -197 2 -7 146 c-47 1050 -403 2117 -1009 3024 -554 830
-1296 1496 -2197 1972 -392 207 -894 399 -1347 512 -105 27 -113 28 -113 22z"/>
<path d="M987 8018 c-327 -568 -683 -1184 -790 -1368 l-195 -335 194 -3 194
-2 0 -78 c0 -97 16 -373 30 -517 46 -472 154 -954 312 -1400 533 -1496 1597
-2695 3013 -3395 494 -244 993 -411 1536 -514 263 -50 268 -50 244 -33 -11 7
-487 283 -1057 613 -571 329 -1038 601 -1038 604 0 4 1036 604 1978 1147 l125
72 -59 16 c-1010 280 -1832 948 -2293 1864 -241 479 -354 920 -387 1504 l-6
117 192 0 c179 0 192 1 186 18 -13 33 -1570 2722 -1577 2722 -3 0 -274 -465
-602 -1032z"/>
<path d="M9930 5592 c0 -31 -59 -263 -96 -377 -241 -744 -695 -1368 -1332
-1832 -208 -151 -464 -295 -717 -403 -320 -137 -782 -247 -1110 -265 -55 -3
-119 -8 -142 -10 l-43 -5 0 235 c0 129 -4 235 -9 235 -4 0 -566 -322 -1247
-716 -681 -394 -1294 -748 -1362 -787 -67 -38 -121 -74 -120 -78 2 -5 552
-325 1223 -712 671 -388 1285 -743 1365 -789 l145 -86 3 148 3 147 142 7 c767
36 1438 187 2127 477 188 79 544 262 735 378 1243 754 2152 1891 2610 3266 41
121 96 310 123 420 49 196 108 493 100 501 -3 2 -254 -428 -559 -956 -304
-528 -556 -960 -559 -960 -3 0 -288 491 -635 1090 -346 599 -633 1089 -637
1090 -5 0 -8 -8 -8 -18z"/>
</g>
</svg>
